<svg width="240" height="34" viewBox="0 0 240 34" version="1.1" xmlns="http://www.w3.org/2000/svg" xmlns:xlink="http://www.w3.org/1999/xlink">
<title>Group</title>
<desc>Created using Figma</desc>
<g id="Canvas" transform="translate(3937 -1314)">
<g id="Group">
<g id="Tap">
<use xlink:href="#path0_fill" transform="translate(-3937 1304)"/>
</g>
<g id="compose">
<use xlink:href="#path1_fill" transform="translate(-3843 1304)"/>
</g>
<g id="Ellipse">
<use xlink:href="#path2_fill" transform="translate(-3868 1322)" fill="#4F1DB8"/>
<mask id="mask0_outline_out">
<rect id="mask0_outline_inv" fill="white" x="-2" y="-2" width="20" height="20" transform="translate(-3868 1322)"/>
<use xlink:href="#path2_fill" fill="black" transform="translate(-3868 1322)"/>
</mask>
<g mask="url(#mask0_outline_out)">
<use xlink:href="#path3_stroke_2x" transform="translate(-3868 1322)" fill="#C2ADED"/>
</g>
</g>
</g>
</g>
<defs>
<path id="path0_fill" d="M 7.28 33.845C 8.28333 33.7983 8.925 33.5183 9.205 33.005C 9.50833 32.4917 9.66 31.6983 9.66 30.625L 9.66 29.54L 9.695 11.795L 6.09 11.83C 4.64333 11.83 3.605 12.32 2.975 13.3C 2.36833 14.2567 2.065 15.785 2.065 17.885L 0.77 17.885L 0.98 10.5L 21.385 10.5L 21.595 17.885L 20.265 17.885C 20.2417 16.415 20.09 15.2483 19.81 14.385C 19.5533 13.4983 19.0983 12.845 18.445 12.425C 17.815 11.9817 16.905 11.76 15.715 11.76L 12.74 11.76L 12.705 30.835C 12.705 32.0717 12.67 32.9933 12.6 33.6L 15.505 33.46L 15.505 35L 7.28 35L 7.28 33.845ZM 27.9732 35.56C 26.2699 35.56 24.9632 35.175 24.0532 34.405C 23.1665 33.635 22.7232 32.6317 22.7232 31.395C 22.7232 30.0417 23.2599 28.8983 24.3332 27.965C 25.4299 27.0317 26.7949 26.3433 28.4282 25.9C 30.0849 25.4333 31.7415 25.2117 33.3982 25.235L 33.3982 23.065C 33.3982 21.5483 33.1765 20.37 32.7332 19.53C 32.2899 18.6667 31.3449 18.235 29.8982 18.235C 29.1749 18.235 28.4865 18.3867 27.8332 18.69C 27.1799 18.9933 26.7015 19.4483 26.3982 20.055C 26.7015 20.3817 26.8532 20.825 26.8532 21.385C 26.8532 21.735 26.7249 22.0733 26.4682 22.4C 26.2115 22.7033 25.8382 22.855 25.3482 22.855C 24.8582 22.855 24.4732 22.7033 24.1932 22.4C 23.9132 22.0733 23.7732 21.6533 23.7732 21.14C 23.7732 20.37 24.0649 19.67 24.6482 19.04C 25.2549 18.3867 26.0832 17.8733 27.1332 17.5C 28.2065 17.1267 29.3965 16.94 30.7032 16.94C 32.6632 16.94 34.1099 17.465 35.0432 18.515C 35.9765 19.5417 36.4315 21.175 36.4082 23.415L 36.3732 31.29C 36.3732 32.0367 36.3265 32.83 36.2332 33.67L 38.7182 33.53L 38.7182 35L 33.7132 35C 33.6432 34.65 33.5615 33.985 33.4682 33.005C 31.7649 34.7083 29.9332 35.56 27.9732 35.56ZM 28.7782 33.565C 29.6649 33.565 30.4699 33.4017 31.1932 33.075C 31.9165 32.725 32.6515 32.2 33.3982 31.5C 33.3749 31.15 33.3632 30.555 33.3632 29.715L 33.3982 26.425C 31.4849 26.495 29.7815 26.8917 28.2882 27.615C 26.7949 28.315 26.0482 29.4 26.0482 30.87C 26.0482 31.7333 26.3049 32.3983 26.8182 32.865C 27.3315 33.3317 27.9849 33.565 28.7782 33.565ZM 40.8051 42.875C 41.4817 42.875 41.9601 42.7 42.2401 42.35C 42.5434 42.0233 42.7184 41.6033 42.7651 41.09C 42.8117 40.6 42.8467 39.7717 42.8701 38.605L 42.9401 21.7C 42.9401 20.72 42.9867 19.9617 43.0801 19.425L 40.5951 19.565L 40.5951 18.095C 41.9717 18.095 42.9167 18.025 43.4301 17.885C 43.9434 17.7217 44.3634 17.4767 44.6901 17.15L 45.7401 17.15C 45.8334 18.2933 45.8801 18.9233 45.8801 19.04C 46.5801 18.41 47.4201 17.9083 48.4001 17.535C 49.3801 17.1383 50.3484 16.94 51.3051 16.94C 52.6817 16.94 53.9534 17.3017 55.1201 18.025C 56.2867 18.725 57.2201 19.74 57.9201 21.07C 58.6434 22.3767 59.0051 23.8933 59.0051 25.62C 59.0051 27.5567 58.5967 29.2833 57.7801 30.8C 56.9634 32.2933 55.8667 33.46 54.4901 34.3C 53.1367 35.14 51.6667 35.56 50.0801 35.56C 48.4701 35.56 47.0701 35.175 45.8801 34.405L 45.8801 40.215C 45.8801 41.265 45.8334 42.0583 45.7401 42.595L 47.9451 42.49L 47.9451 43.925L 40.8051 43.925L 40.8051 42.875ZM 50.0101 34.16C 51.1067 34.16 52.0517 33.8217 52.8451 33.145C 53.6617 32.4683 54.2917 31.5233 54.7351 30.31C 55.1784 29.0967 55.4001 27.72 55.4001 26.18C 55.4001 24.08 54.9451 22.3067 54.0351 20.86C 53.1484 19.39 51.8184 18.655 50.0451 18.655C 49.2751 18.655 48.5284 18.8417 47.8051 19.215C 47.0817 19.5883 46.4517 20.055 45.9151 20.615C 45.9384 20.7783 45.9501 21.49 45.9501 22.75L 45.9151 32.795C 47.1051 33.705 48.4701 34.16 50.0101 34.16Z"/>
<path id="path1_fill" d="M 10.08 35.56C 8.49333 35.56 7.035 35.1983 5.705 34.475C 4.39833 33.7517 3.36 32.7133 2.59 31.36C 1.82 30.0067 1.435 28.4083 1.435 26.565C 1.435 24.9317 1.82 23.38 2.59 21.91C 3.38333 20.4167 4.46833 19.215 5.845 18.305C 7.245 17.395 8.82 16.94 10.57 16.94C 11.83 16.94 12.95 17.1383 13.93 17.535C 14.91 17.9317 15.6683 18.4567 16.205 19.11C 16.765 19.7633 17.045 20.475 17.045 21.245C 17.045 21.7817 16.8933 22.225 16.59 22.575C 16.2867 22.925 15.8667 23.1 15.33 23.1C 14.8167 23.1 14.4317 22.9367 14.175 22.61C 13.9183 22.26 13.79 21.8983 13.79 21.525C 13.79 20.9417 13.965 20.475 14.315 20.125C 14.0583 19.4017 13.5567 18.9117 12.81 18.655C 12.0867 18.375 11.3633 18.235 10.64 18.235C 9.56667 18.235 8.59833 18.5267 7.735 19.11C 6.895 19.6933 6.23 20.545 5.74 21.665C 5.25 22.785 5.005 24.1267 5.005 25.69C 5.005 27.2533 5.25 28.6417 5.74 29.855C 6.25333 31.0683 6.965 32.025 7.875 32.725C 8.785 33.4017 9.835 33.74 11.025 33.74C 12.075 33.74 13.1017 33.46 14.105 32.9C 15.1317 32.3167 15.9367 31.5933 16.52 30.73L 17.43 31.43C 16.5667 32.7833 15.4467 33.81 14.07 34.51C 12.7167 35.21 11.3867 35.56 10.08 35.56ZM 28.677 35.56C 27.067 35.56 25.5854 35.1867 24.232 34.44C 22.902 33.67 21.8404 32.6083 21.047 31.255C 20.277 29.9017 19.892 28.3733 19.892 26.67C 19.892 24.85 20.277 23.205 21.047 21.735C 21.817 20.2417 22.867 19.075 24.197 18.235C 25.5504 17.3717 27.0437 16.94 28.677 16.94C 30.287 16.94 31.7687 17.3367 33.122 18.13C 34.4754 18.9 35.537 19.9617 36.307 21.315C 37.1004 22.6683 37.497 24.1733 37.497 25.83C 37.497 27.6033 37.1004 29.2367 36.307 30.73C 35.537 32.2233 34.4754 33.4017 33.122 34.265C 31.792 35.1283 30.3104 35.56 28.677 35.56ZM 28.957 34.16C 30.6604 34.16 31.9087 33.46 32.702 32.06C 33.5187 30.66 33.927 28.9217 33.927 26.845C 33.927 24.4883 33.4837 22.47 32.597 20.79C 31.7337 19.11 30.427 18.27 28.677 18.27C 26.9504 18.27 25.6437 18.9817 24.757 20.405C 23.8937 21.8283 23.462 23.5783 23.462 25.655C 23.462 27.1483 23.6604 28.5483 24.057 29.855C 24.477 31.1383 25.0954 32.1767 25.912 32.97C 26.752 33.7633 27.767 34.16 28.957 34.16ZM 40.4707 33.95C 41.1473 33.95 41.6257 33.7867 41.9057 33.46C 42.209 33.11 42.384 32.6783 42.4307 32.165C 42.5007 31.6283 42.5357 30.8 42.5357 29.68L 42.5357 21.7C 42.5357 20.72 42.5823 19.9617 42.6757 19.425L 40.1907 19.565L 40.1907 18.095C 41.5673 18.095 42.5123 18.025 43.0257 17.885C 43.539 17.7217 43.9707 17.4767 44.3207 17.15L 45.3357 17.15C 45.3823 17.5 45.429 18.1183 45.4757 19.005C 46.199 18.375 47.0157 17.8733 47.9257 17.5C 48.8357 17.1267 49.734 16.94 50.6207 16.94C 51.764 16.94 52.7323 17.15 53.5257 17.57C 54.3423 17.9667 54.9723 18.5383 55.4157 19.285C 56.2557 18.6083 57.189 18.0483 58.2157 17.605C 59.2657 17.1617 60.269 16.94 61.2257 16.94C 63.279 16.94 64.7723 17.57 65.7057 18.83C 66.6623 20.0667 67.1173 22.05 67.0707 24.78L 67.0357 31.29C 67.0357 32.34 66.989 33.1333 66.8957 33.67L 69.1007 33.565L 69.1007 35L 61.9607 35L 61.9607 33.95C 62.6373 33.95 63.1157 33.7867 63.3957 33.46C 63.699 33.11 63.874 32.6783 63.9207 32.165C 63.9907 31.6283 64.0257 30.8 64.0257 29.68L 64.0257 24.78C 64.0257 22.7733 63.7107 21.28 63.0807 20.3C 62.4507 19.2967 61.459 18.795 60.1057 18.795C 59.3823 18.795 58.6473 18.9583 57.9007 19.285C 57.1773 19.5883 56.5357 19.9967 55.9757 20.51C 56.209 21.2333 56.3257 22.085 56.3257 23.065L 56.2557 31.29C 56.2557 32.34 56.209 33.1333 56.1157 33.67L 58.3207 33.565L 58.3207 35L 51.1807 35L 51.1807 33.95C 51.8573 33.95 52.3357 33.7867 52.6157 33.46C 52.919 33.11 53.094 32.69 53.1407 32.2C 53.1873 31.6867 53.2223 30.8467 53.2457 29.68L 53.2807 24.78C 53.304 22.75 53.0123 21.2333 52.4057 20.23C 51.799 19.2267 50.8307 18.725 49.5007 18.725C 48.7773 18.725 48.054 18.8767 47.3307 19.18C 46.6307 19.4833 46.024 19.8917 45.5107 20.405L 45.5457 22.295L 45.5457 31.29C 45.5457 32.34 45.499 33.1333 45.4057 33.67L 47.6107 33.565L 47.6107 35L 40.4707 35L 40.4707 33.95ZM 71.4301 42.875C 72.1067 42.875 72.5851 42.7 72.8651 42.35C 73.1684 42.0233 73.3434 41.6033 73.3901 41.09C 73.4367 40.6 73.4717 39.7717 73.4951 38.605L 73.5651 21.7C 73.5651 20.72 73.6117 19.9617 73.7051 19.425L 71.2201 19.565L 71.2201 18.095C 72.5967 18.095 73.5417 18.025 74.0551 17.885C 74.5684 17.7217 74.9884 17.4767 75.3151 17.15L 76.3651 17.15C 76.4584 18.2933 76.5051 18.9233 76.5051 19.04C 77.2051 18.41 78.0451 17.9083 79.0251 17.535C 80.0051 17.1383 80.9734 16.94 81.9301 16.94C 83.3067 16.94 84.5784 17.3017 85.7451 18.025C 86.9117 18.725 87.8451 19.74 88.5451 21.07C 89.2684 22.3767 89.6301 23.8933 89.6301 25.62C 89.6301 27.5567 89.2217 29.2833 88.4051 30.8C 87.5884 32.2933 86.4917 33.46 85.1151 34.3C 83.7617 35.14 82.2917 35.56 80.7051 35.56C 79.0951 35.56 77.6951 35.175 76.5051 34.405L 76.5051 40.215C 76.5051 41.265 76.4584 42.0583 76.3651 42.595L 78.5701 42.49L 78.5701 43.925L 71.4301 43.925L 71.4301 42.875ZM 80.6351 34.16C 81.7317 34.16 82.6767 33.8217 83.4701 33.145C 84.2867 32.4683 84.9167 31.5233 85.3601 30.31C 85.8034 29.0967 86.0251 27.72 86.0251 26.18C 86.0251 24.08 85.5701 22.3067 84.6601 20.86C 83.7734 19.39 82.4434 18.655 80.6701 18.655C 79.9001 18.655 79.1534 18.8417 78.4301 19.215C 77.7067 19.5883 77.0767 20.055 76.5401 20.615C 76.5634 20.7783 76.5751 21.49 76.5751 22.75L 76.5401 32.795C 77.7301 33.705 79.0951 34.16 80.6351 34.16ZM 101.309 35.56C 99.6989 35.56 98.2172 35.1867 96.8639 34.44C 95.5339 33.67 94.4722 32.6083 93.6789 31.255C 92.9089 29.9017 92.5239 28.3733 92.5239 26.67C 92.5239 24.85 92.9089 23.205 93.6789 21.735C 94.4489 20.2417 95.4989 19.075 96.8289 18.235C 98.1822 17.3717 99.6755 16.94 101.309 16.94C 102.919 16.94 104.401 17.3367 105.754 18.13C 107.107 18.9 108.169 19.9617 108.939 21.315C 109.732 22.6683 110.129 24.1733 110.129 25.83C 110.129 27.6033 109.732 29.2367 108.939 30.73C 108.169 32.2233 107.107 33.4017 105.754 34.265C 104.424 35.1283 102.942 35.56 101.309 35.56ZM 101.589 34.16C 103.292 34.16 104.541 33.46 105.334 32.06C 106.151 30.66 106.559 28.9217 106.559 26.845C 106.559 24.4883 106.116 22.47 105.229 20.79C 104.366 19.11 103.059 18.27 101.309 18.27C 99.5822 18.27 98.2755 18.9817 97.3889 20.405C 96.5255 21.8283 96.0939 23.5783 96.0939 25.655C 96.0939 27.1483 96.2922 28.5483 96.6889 29.855C 97.1089 31.1383 97.7272 32.1767 98.5439 32.97C 99.3839 33.7633 100.399 34.16 101.589 34.16ZM 120.277 35.56C 119.181 35.56 118.177 35.4083 117.268 35.105C 116.357 34.825 115.576 34.4633 114.923 34.02L 115.063 35.245L 113.592 35.245L 113.383 29.225L 114.467 29.225C 114.514 30.1817 114.771 31.0333 115.237 31.78C 115.728 32.5267 116.357 33.1217 117.127 33.565C 117.921 33.985 118.761 34.195 119.648 34.195C 120.651 34.195 121.537 33.9617 122.308 33.495C 123.101 33.005 123.497 32.3167 123.497 31.43C 123.497 30.7767 123.299 30.2283 122.903 29.785C 122.529 29.3417 122.051 28.98 121.467 28.7C 120.907 28.3967 120.114 28.0467 119.088 27.65C 117.851 27.1833 116.859 26.7517 116.112 26.355C 115.366 25.935 114.724 25.375 114.188 24.675C 113.651 23.975 113.383 23.0883 113.383 22.015C 113.383 21.245 113.569 20.475 113.943 19.705C 114.316 18.935 114.946 18.2817 115.833 17.745C 116.719 17.2083 117.897 16.94 119.368 16.94C 120.091 16.94 120.826 17.0567 121.573 17.29C 122.342 17.5233 123.054 17.9083 123.708 18.445L 123.637 17.115L 125.107 17.115L 125.107 23.24L 123.987 23.24C 123.917 21.8867 123.497 20.72 122.728 19.74C 121.981 18.7367 120.919 18.235 119.543 18.235C 118.492 18.235 117.652 18.5033 117.023 19.04C 116.416 19.5533 116.112 20.1717 116.112 20.895C 116.112 21.5717 116.311 22.1433 116.707 22.61C 117.127 23.0767 117.641 23.4733 118.247 23.8C 118.854 24.1267 119.671 24.4883 120.698 24.885C 121.911 25.375 122.891 25.83 123.637 26.25C 124.384 26.67 125.014 27.23 125.527 27.93C 126.064 28.6067 126.332 29.435 126.332 30.415C 126.332 31.535 126.041 32.48 125.458 33.25C 124.898 34.02 124.151 34.6033 123.218 35C 122.308 35.3733 121.328 35.56 120.277 35.56ZM 137.774 35.56C 136.164 35.56 134.705 35.1867 133.399 34.44C 132.115 33.67 131.1 32.585 130.354 31.185C 129.607 29.7617 129.234 28.1283 129.234 26.285C 129.234 24.6517 129.607 23.1233 130.354 21.7C 131.1 20.2533 132.139 19.0983 133.469 18.235C 134.822 17.3717 136.35 16.94 138.054 16.94C 139.384 16.94 140.585 17.2317 141.659 17.815C 142.732 18.3983 143.584 19.2733 144.214 20.44C 144.844 21.5833 145.159 22.995 145.159 24.675L 132.839 24.885C 132.815 27.685 133.27 29.8667 134.204 31.43C 135.16 32.9933 136.63 33.775 138.614 33.775C 139.687 33.775 140.784 33.495 141.904 32.935C 143.047 32.375 143.922 31.6867 144.529 30.87L 145.369 31.57C 144.482 32.9233 143.327 33.9267 141.904 34.58C 140.504 35.2333 139.127 35.56 137.774 35.56ZM 141.869 23.415C 141.869 22.015 141.554 20.8133 140.924 19.81C 140.294 18.8067 139.349 18.305 138.089 18.305C 135.195 18.305 133.48 20.0083 132.944 23.415L 141.869 23.415Z"/>
<path id="path2_fill" d="M 16 8C 16 12.4183 12.4183 16 8 16C 3.58172 16 0 12.4183 0 8C 0 3.58172 3.58172 0 8 0C 12.4183 0 16 3.58172 16 8Z"/>
<path id="path3_stroke_2x" d="M 14 8C 14 11.3137 11.3137 14 8 14L 8 18C 13.5228 18 18 13.5228 18 8L 14 8ZM 8 14C 4.68629 14 2 11.3137 2 8L -2 8C -2 13.5228 2.47715 18 8 18L 8 14ZM 2 8C 2 4.68629 4.68629 2 8 2L 8 -2C 2.47715 -2 -2 2.47715 -2 8L 2 8ZM 8 2C 11.3137 2 14 4.68629 14 8L 18 8C 18 2.47715 13.5228 -2 8 -2L 8 2Z"/>
</defs>
</svg>
